<mxfile host="app.diagrams.net" agent="Mozilla/5.0 (Macintosh; Intel Mac OS X 10_15_7) AppleWebKit/537.36 (KHTML, like Gecko) Chrome/129.0.0.0 Safari/537.36" version="24.8.0">
  <diagram name="Page-1" id="ZMV4DmxlQaIOeI6pwuCv">
    <mxGraphModel dx="945" dy="674" grid="1" gridSize="10" guides="1" tooltips="1" connect="1" arrows="1" fold="1" page="1" pageScale="1" pageWidth="850" pageHeight="1100" math="0" shadow="0">
      <root>
        <mxCell id="0" />
        <mxCell id="1" parent="0" />
        <mxCell id="OzxO1Z9Ibj85NB9k1Z00-22" value="" style="endArrow=classic;html=1;rounded=0;entryX=0;entryY=0.5;entryDx=0;entryDy=0;exitX=1.017;exitY=0.667;exitDx=0;exitDy=0;exitPerimeter=0;" parent="1" source="OzxO1Z9Ibj85NB9k1Z00-7" target="OzxO1Z9Ibj85NB9k1Z00-20" edge="1">
          <mxGeometry width="50" height="50" relative="1" as="geometry">
            <mxPoint x="90" y="190" as="sourcePoint" />
            <mxPoint x="450" y="230" as="targetPoint" />
            <Array as="points" />
          </mxGeometry>
        </mxCell>
        <mxCell id="OzxO1Z9Ibj85NB9k1Z00-1" value="https://allotaxp.vercel.app/" style="swimlane;whiteSpace=wrap;html=1;fillColor=#e1d5e7;strokeColor=#9673a6;startSize=30;" parent="1" vertex="1">
          <mxGeometry x="580" y="50" width="175" height="80" as="geometry" />
        </mxCell>
        <mxCell id="OzxO1Z9Ibj85NB9k1Z00-4" value="Website: upload data, get plot" style="text;align=center;verticalAlign=middle;resizable=0;points=[];autosize=1;strokeColor=none;fillColor=none;textShadow=0;html=1;" parent="OzxO1Z9Ibj85NB9k1Z00-1" vertex="1">
          <mxGeometry x="-5" y="40" width="180" height="30" as="geometry" />
        </mxCell>
        <mxCell id="OzxO1Z9Ibj85NB9k1Z00-6" value="allotaxonometer repo&lt;div&gt;(most recent)&lt;/div&gt;" style="whiteSpace=wrap;html=1;aspect=fixed;" parent="1" vertex="1">
          <mxGeometry x="60" y="40" width="100" height="100" as="geometry" />
        </mxCell>
        <mxCell id="OzxO1Z9Ibj85NB9k1Z00-7" value="npm" style="ellipse;whiteSpace=wrap;html=1;" parent="1" vertex="1">
          <mxGeometry x="235" y="218" width="60" height="60" as="geometry" />
        </mxCell>
        <mxCell id="OzxO1Z9Ibj85NB9k1Z00-8" value="pypi" style="ellipse;whiteSpace=wrap;html=1;" parent="1" vertex="1">
          <mxGeometry x="235" y="293" width="60" height="60" as="geometry" />
        </mxCell>
        <mxCell id="OzxO1Z9Ibj85NB9k1Z00-9" value="py-allotax&amp;nbsp;&lt;div&gt;repo&lt;/div&gt;" style="whiteSpace=wrap;html=1;aspect=fixed;" parent="1" vertex="1">
          <mxGeometry x="35" y="418" width="100" height="100" as="geometry" />
        </mxCell>
        <mxCell id="OzxO1Z9Ibj85NB9k1Z00-10" value="&lt;div&gt;&lt;span style=&quot;background-color: initial;&quot;&gt;github.com/jstonge/allotaxonometer&lt;/span&gt;&lt;br&gt;&lt;/div&gt;&lt;div&gt;- meant to be code any can fork&lt;/div&gt;" style="text;html=1;align=center;verticalAlign=middle;resizable=0;points=[];autosize=1;strokeColor=none;fillColor=none;" parent="1" vertex="1">
          <mxGeometry x="60" y="3" width="210" height="40" as="geometry" />
        </mxCell>
        <mxCell id="OzxO1Z9Ibj85NB9k1Z00-11" value="&lt;div&gt;&lt;span style=&quot;background-color: initial;&quot;&gt;github.com/carterwward/py-allotax&lt;/span&gt;&lt;br&gt;&lt;/div&gt;" style="text;html=1;align=center;verticalAlign=middle;resizable=0;points=[];autosize=1;strokeColor=none;fillColor=none;" parent="1" vertex="1">
          <mxGeometry x="35" y="518" width="210" height="30" as="geometry" />
        </mxCell>
        <mxCell id="OzxO1Z9Ibj85NB9k1Z00-12" value="allotaxonometer repo" style="whiteSpace=wrap;html=1;aspect=fixed;" parent="1" vertex="1">
          <mxGeometry x="310" y="460" width="100" height="100" as="geometry" />
        </mxCell>
        <mxCell id="OzxO1Z9Ibj85NB9k1Z00-13" value="gitlab.com/compstorylab/allotaxonometer" style="text;html=1;align=center;verticalAlign=middle;resizable=0;points=[];autosize=1;strokeColor=none;fillColor=none;" parent="1" vertex="1">
          <mxGeometry x="310" y="430" width="240" height="30" as="geometry" />
        </mxCell>
        <mxCell id="OzxO1Z9Ibj85NB9k1Z00-15" value="svelte, d3" style="text;html=1;align=center;verticalAlign=middle;resizable=0;points=[];autosize=1;strokeColor=none;fillColor=none;" parent="1" vertex="1">
          <mxGeometry x="685" y="20" width="70" height="30" as="geometry" />
        </mxCell>
        <mxCell id="OzxO1Z9Ibj85NB9k1Z00-20" value="py-env or CLI" style="swimlane;whiteSpace=wrap;html=1;fillColor=#dae8fc;strokeColor=#6c8ebf;" parent="1" vertex="1">
          <mxGeometry x="580" y="263" width="170" height="120" as="geometry" />
        </mxCell>
        <mxCell id="OzxO1Z9Ibj85NB9k1Z00-21" value="py-allotax package:&amp;nbsp;&lt;div&gt;install npm, pypi&amp;nbsp;&lt;/div&gt;&lt;div&gt;dependencies (allo 1.1.9),&amp;nbsp;&lt;div&gt;run method,&amp;nbsp;&lt;/div&gt;&lt;div&gt;save plot&lt;/div&gt;&lt;/div&gt;" style="text;html=1;align=left;verticalAlign=middle;resizable=0;points=[];autosize=1;strokeColor=none;fillColor=none;" parent="OzxO1Z9Ibj85NB9k1Z00-20" vertex="1">
          <mxGeometry x="10" y="20" width="160" height="90" as="geometry" />
        </mxCell>
        <mxCell id="Tg21E1QMRIyoOfRDBz5q-2" value="" style="image;html=1;image=img/lib/clip_art/general/Star_128x128.png;rotation=-15;" vertex="1" parent="OzxO1Z9Ibj85NB9k1Z00-20">
          <mxGeometry x="-20" y="-33" width="60" height="67" as="geometry" />
        </mxCell>
        <mxCell id="OzxO1Z9Ibj85NB9k1Z00-23" value="" style="endArrow=classic;html=1;rounded=0;exitX=1;exitY=0.5;exitDx=0;exitDy=0;entryX=0.267;entryY=0.867;entryDx=0;entryDy=0;entryPerimeter=0;" parent="1" source="OzxO1Z9Ibj85NB9k1Z00-9" target="OzxO1Z9Ibj85NB9k1Z00-8" edge="1">
          <mxGeometry width="50" height="50" relative="1" as="geometry">
            <mxPoint x="400" y="280" as="sourcePoint" />
            <mxPoint x="450" y="230" as="targetPoint" />
          </mxGeometry>
        </mxCell>
        <mxCell id="OzxO1Z9Ibj85NB9k1Z00-24" value="" style="endArrow=classic;html=1;rounded=0;entryX=0;entryY=0.5;entryDx=0;entryDy=0;exitX=1;exitY=0.5;exitDx=0;exitDy=0;" parent="1" source="OzxO1Z9Ibj85NB9k1Z00-8" target="OzxO1Z9Ibj85NB9k1Z00-20" edge="1">
          <mxGeometry width="50" height="50" relative="1" as="geometry">
            <mxPoint x="90" y="320" as="sourcePoint" />
            <mxPoint x="450" y="230" as="targetPoint" />
          </mxGeometry>
        </mxCell>
        <mxCell id="OzxO1Z9Ibj85NB9k1Z00-27" value="package&amp;nbsp;&lt;div&gt;storage&lt;/div&gt;" style="text;html=1;align=center;verticalAlign=middle;resizable=0;points=[];autosize=1;strokeColor=none;fillColor=none;" parent="1" vertex="1">
          <mxGeometry x="150" y="353" width="70" height="40" as="geometry" />
        </mxCell>
        <mxCell id="OzxO1Z9Ibj85NB9k1Z00-29" value="node.js&lt;div&gt;dependencies&amp;nbsp;&lt;/div&gt;&lt;div&gt;(idea: include as binaries and abstract away&amp;nbsp;&lt;/div&gt;&lt;div&gt;js dependencies for user)&lt;/div&gt;" style="text;html=1;align=center;verticalAlign=middle;resizable=0;points=[];autosize=1;strokeColor=none;fillColor=none;" parent="1" vertex="1">
          <mxGeometry x="310" y="223" width="260" height="70" as="geometry" />
        </mxCell>
        <mxCell id="OzxO1Z9Ibj85NB9k1Z00-30" value="python&amp;nbsp;&lt;div&gt;dependencies&lt;/div&gt;" style="text;html=1;align=center;verticalAlign=middle;resizable=0;points=[];autosize=1;strokeColor=none;fillColor=none;" parent="1" vertex="1">
          <mxGeometry x="420" y="320" width="100" height="40" as="geometry" />
        </mxCell>
        <mxCell id="OzxO1Z9Ibj85NB9k1Z00-31" value="matlab" style="swimlane;whiteSpace=wrap;html=1;fillColor=#f8cecc;strokeColor=#b85450;" parent="1" vertex="1">
          <mxGeometry x="580" y="440" width="220" height="120" as="geometry" />
        </mxCell>
        <mxCell id="OzxO1Z9Ibj85NB9k1Z00-32" value="matlab scripts:&amp;nbsp;&lt;div&gt;requires matlab or&amp;nbsp;&lt;div&gt;python&#39;s matlab engine or octave&amp;nbsp;&lt;/div&gt;&lt;div&gt;to run; either requires matlab/octave&amp;nbsp;&lt;/div&gt;&lt;div&gt;be installed then using the python lib&amp;nbsp;&lt;/div&gt;&lt;div&gt;is still near impossible&lt;br&gt;&lt;/div&gt;&lt;/div&gt;" style="text;html=1;align=left;verticalAlign=middle;resizable=0;points=[];autosize=1;strokeColor=none;fillColor=none;" parent="OzxO1Z9Ibj85NB9k1Z00-31" vertex="1">
          <mxGeometry y="18" width="220" height="100" as="geometry" />
        </mxCell>
        <mxCell id="OzxO1Z9Ibj85NB9k1Z00-36" value="matlab" style="text;html=1;align=center;verticalAlign=middle;resizable=0;points=[];autosize=1;strokeColor=none;fillColor=none;" parent="OzxO1Z9Ibj85NB9k1Z00-31" vertex="1">
          <mxGeometry x="160" y="-30" width="60" height="30" as="geometry" />
        </mxCell>
        <mxCell id="OzxO1Z9Ibj85NB9k1Z00-33" value="" style="endArrow=classic;html=1;rounded=0;exitX=1.01;exitY=0.44;exitDx=0;exitDy=0;exitPerimeter=0;entryX=-0.002;entryY=0.5;entryDx=0;entryDy=0;entryPerimeter=0;" parent="1" source="OzxO1Z9Ibj85NB9k1Z00-12" target="OzxO1Z9Ibj85NB9k1Z00-32" edge="1">
          <mxGeometry width="50" height="50" relative="1" as="geometry">
            <mxPoint x="400" y="280" as="sourcePoint" />
            <mxPoint x="450" y="230" as="targetPoint" />
          </mxGeometry>
        </mxCell>
        <mxCell id="OzxO1Z9Ibj85NB9k1Z00-34" value=".m scripts" style="text;html=1;align=center;verticalAlign=middle;resizable=0;points=[];autosize=1;strokeColor=none;fillColor=none;" parent="1" vertex="1">
          <mxGeometry x="460" y="480" width="70" height="30" as="geometry" />
        </mxCell>
        <mxCell id="OzxO1Z9Ibj85NB9k1Z00-35" value="python, d3" style="text;html=1;align=center;verticalAlign=middle;resizable=0;points=[];autosize=1;strokeColor=none;fillColor=none;" parent="1" vertex="1">
          <mxGeometry x="670" y="233" width="80" height="30" as="geometry" />
        </mxCell>
        <mxCell id="OzxO1Z9Ibj85NB9k1Z00-38" value="allotaxp&lt;div&gt;repo&lt;/div&gt;" style="whiteSpace=wrap;html=1;aspect=fixed;" parent="1" vertex="1">
          <mxGeometry x="433" y="38" width="82" height="82" as="geometry" />
        </mxCell>
        <mxCell id="OzxO1Z9Ibj85NB9k1Z00-39" value="github.com/jstonge/allotaxp" style="text;html=1;align=center;verticalAlign=middle;resizable=0;points=[];autosize=1;strokeColor=none;fillColor=none;" parent="1" vertex="1">
          <mxGeometry x="433" y="8" width="170" height="30" as="geometry" />
        </mxCell>
        <mxCell id="OzxO1Z9Ibj85NB9k1Z00-40" value="" style="endArrow=classic;html=1;rounded=0;exitX=1;exitY=0.5;exitDx=0;exitDy=0;entryX=0.017;entryY=0.375;entryDx=0;entryDy=0;entryPerimeter=0;" parent="1" source="OzxO1Z9Ibj85NB9k1Z00-38" target="OzxO1Z9Ibj85NB9k1Z00-1" edge="1">
          <mxGeometry width="50" height="50" relative="1" as="geometry">
            <mxPoint x="400" y="280" as="sourcePoint" />
            <mxPoint x="450" y="230" as="targetPoint" />
          </mxGeometry>
        </mxCell>
        <mxCell id="OzxO1Z9Ibj85NB9k1Z00-45" value="" style="endArrow=classic;html=1;rounded=0;exitX=0.62;exitY=1;exitDx=0;exitDy=0;exitPerimeter=0;" parent="1" source="OzxO1Z9Ibj85NB9k1Z00-6" target="OzxO1Z9Ibj85NB9k1Z00-7" edge="1">
          <mxGeometry width="50" height="50" relative="1" as="geometry">
            <mxPoint x="122" y="140" as="sourcePoint" />
            <mxPoint x="241" y="230" as="targetPoint" />
          </mxGeometry>
        </mxCell>
        <mxCell id="OzxO1Z9Ibj85NB9k1Z00-17" value="package&lt;div&gt;storage&lt;/div&gt;" style="text;html=1;align=center;verticalAlign=middle;resizable=0;points=[];autosize=1;strokeColor=none;fillColor=none;" parent="1" vertex="1">
          <mxGeometry x="180" y="160" width="70" height="40" as="geometry" />
        </mxCell>
        <mxCell id="Tg21E1QMRIyoOfRDBz5q-1" value="JSO: potentially revert allo repo in main,&lt;div&gt;talk of contour lines; would need to change&lt;/div&gt;&lt;div&gt;allo v in py-allotax (and change depends. here)&lt;/div&gt;" style="text;html=1;align=left;verticalAlign=middle;resizable=0;points=[];autosize=1;strokeColor=none;fillColor=none;" vertex="1" parent="1">
          <mxGeometry x="163" y="50" width="270" height="60" as="geometry" />
        </mxCell>
      </root>
    </mxGraphModel>
  </diagram>
</mxfile>
